<svg xmlns="http://www.w3.org/2000/svg" viewBox="0 0 400 300" width="400" height="300">
  <defs>
    <radialGradient id="bg" cx="50%" cy="40%" r="70%"><stop offset="0%" stop-color="#1a1a10"/><stop offset="100%" stop-color="#0c1a0f"/></radialGradient>
    <radialGradient id="stem" cx="40%" cy="35%" r="55%"><stop offset="0%" stop-color="#d4c09a"/><stop offset="100%" stop-color="#a08850"/></radialGradient>
    <radialGradient id="plate" cx="50%" cy="35%" r="60%"><stop offset="0%" stop-color="#2a2a2a"/><stop offset="100%" stop-color="#141414"/></radialGradient>
  </defs>
  <rect width="400" height="300" fill="url(#bg)"/>
  <!-- Plate -->
  <ellipse cx="200" cy="188" rx="115" ry="28" fill="#101010" opacity="0.6"/>
  <ellipse cx="200" cy="180" rx="118" ry="32" fill="url(#plate)"/>
  <ellipse cx="200" cy="176" rx="110" ry="28" fill="#1e1e1e"/>
  <ellipse cx="200" cy="173" rx="106" ry="24" fill="#1a1a1a"/>

  <!-- Lotus stem cross-sections (circles with holes) -->
  <!-- Row 1 back -->
  <circle cx="160" cy="165" r="18" fill="url(#stem)"/>
  <circle cx="160" cy="163" r="15" fill="#c0a878"/>
  <!-- Holes pattern -->
  <circle cx="155" cy="160" r="3.5" fill="#5a4020"/>
  <circle cx="165" cy="159" r="3.5" fill="#5a4020"/>
  <circle cx="160" cy="167" r="3.5" fill="#5a4020"/>
  <circle cx="153" cy="167" r="2.5" fill="#5a4020"/>
  <circle cx="167" cy="167" r="2.5" fill="#5a4020"/>
  <circle cx="159" cy="153" r="2" fill="#6a5030" opacity="0.7"/>

  <circle cx="200" cy="160" r="20" fill="url(#stem)"/>
  <circle cx="200" cy="158" r="17" fill="#c8b080"/>
  <circle cx="195" cy="155" r="4" fill="#5a4020"/>
  <circle cx="206" cy="154" r="4" fill="#5a4020"/>
  <circle cx="200" cy="163" r="4" fill="#5a4020"/>
  <circle cx="192" cy="163" r="2.8" fill="#5a4020"/>
  <circle cx="208" cy="163" r="2.8" fill="#5a4020"/>
  <circle cx="199" cy="148" r="2.2" fill="#6a5030" opacity="0.7"/>

  <circle cx="240" cy="165" r="18" fill="url(#stem)"/>
  <circle cx="240" cy="163" r="15" fill="#c0a878"/>
  <circle cx="235" cy="160" r="3.5" fill="#5a4020"/>
  <circle cx="245" cy="159" r="3.5" fill="#5a4020"/>
  <circle cx="240" cy="167" r="3.5" fill="#5a4020"/>
  <circle cx="233" cy="167" r="2.5" fill="#5a4020"/>
  <circle cx="247" cy="167" r="2.5" fill="#5a4020"/>

  <!-- Row 2 front -->
  <circle cx="140" cy="178" r="16" fill="#b89060"/>
  <circle cx="140" cy="176" r="13" fill="#a88050"/>
  <circle cx="136" cy="173" r="3" fill="#4a3010"/>
  <circle cx="144" cy="172" r="3" fill="#4a3010"/>
  <circle cx="140" cy="179" r="3" fill="#4a3010"/>
  <circle cx="133" cy="178" r="2" fill="#4a3010"/>
  <circle cx="147" cy="178" r="2" fill="#4a3010"/>

  <circle cx="180" cy="175" r="17" fill="#c0a870"/>
  <circle cx="180" cy="173" r="14" fill="#b09060"/>
  <circle cx="175" cy="170" r="3.2" fill="#4a3010"/>
  <circle cx="185" cy="169" r="3.2" fill="#4a3010"/>
  <circle cx="180" cy="176" r="3.2" fill="#4a3010"/>
  <circle cx="173" cy="176" r="2.2" fill="#4a3010"/>
  <circle cx="187" cy="176" r="2.2" fill="#4a3010"/>

  <circle cx="222" cy="174" r="17" fill="#c0a870"/>
  <circle cx="222" cy="172" r="14" fill="#b09060"/>
  <circle cx="217" cy="169" r="3.2" fill="#4a3010"/>
  <circle cx="227" cy="168" r="3.2" fill="#4a3010"/>
  <circle cx="222" cy="175" r="3.2" fill="#4a3010"/>
  <circle cx="215" cy="175" r="2.2" fill="#4a3010"/>
  <circle cx="229" cy="175" r="2.2" fill="#4a3010"/>

  <circle cx="262" cy="178" r="16" fill="#b89060"/>
  <circle cx="262" cy="176" r="13" fill="#a88050"/>
  <circle cx="258" cy="173" r="3" fill="#4a3010"/>
  <circle cx="266" cy="172" r="3" fill="#4a3010"/>
  <circle cx="262" cy="179" r="3" fill="#4a3010"/>

  <!-- Tamarind chutney drizzle -->
  <path d="M145 165 Q165 160 185 168 Q200 162 220 168 Q235 160 255 165" fill="none" stroke="#6a2808" stroke-width="2.5" stroke-linecap="round" opacity="0.75"/>

  <!-- Green chutney dots -->
  <circle cx="170" cy="160" r="3" fill="#3a8a18" opacity="0.8"/>
  <circle cx="215" cy="162" r="3" fill="#3a8a18" opacity="0.8"/>
  <circle cx="195" cy="172" r="2.5" fill="#4a9a20" opacity="0.7"/>

  <!-- Sev (fried noodles) on top -->
  <path d="M148 155 Q155 150 162 154" fill="none" stroke="#d4a840" stroke-width="1.5" stroke-linecap="round" opacity="0.8"/>
  <path d="M190 148 Q197 143 204 147" fill="none" stroke="#d4a840" stroke-width="1.5" stroke-linecap="round" opacity="0.8"/>
  <path d="M230 152 Q237 147 244 151" fill="none" stroke="#d4a840" stroke-width="1.5" stroke-linecap="round" opacity="0.8"/>

  <!-- Pomegranate seeds -->
  <circle cx="165" cy="168" r="2" fill="#cc1818"/>
  <circle cx="207" cy="165" r="2" fill="#cc1818"/>
  <circle cx="245" cy="170" r="2" fill="#bb1010"/>

  <!-- Label -->
  <text x="200" y="228" text-anchor="middle" font-family="Georgia, serif" font-size="14" font-weight="bold" fill="#e8a020" opacity="0.9">Lotus Stem Chaat</text>
  <text x="200" y="245" text-anchor="middle" font-family="Arial, sans-serif" font-size="9" fill="#c8b89a" opacity="0.6" letter-spacing="1.5">SIGNATURE STARTERS</text>
</svg>