<svg xmlns="http://www.w3.org/2000/svg" viewBox="0 0 400 300" width="400" height="300">
  <rect width="400" height="300" fill="#111f15"/>
  <rect x="20" y="20" width="360" height="260" rx="16" fill="#162a1a" stroke="#e8a020" stroke-width="1" stroke-opacity="0.3"/>
  <!-- Bowl shape -->
  <path d="M145 130 Q145 175 200 180 Q255 175 255 130 Z" fill="none" stroke="#e8a020" stroke-width="1.5" stroke-opacity="0.5"/>
  <line x1="135" y1="130" x2="265" y2="130" stroke="#e8a020" stroke-width="1.5" stroke-opacity="0.5" stroke-linecap="round"/>
  <!-- Steam lines -->
  <path d="M175 118 Q173 110 177 102 Q173 94 177 86" fill="none" stroke="#c8b89a" stroke-width="1.2" stroke-opacity="0.4" stroke-linecap="round"/>
  <path d="M200 115 Q198 107 202 99 Q198 91 202 83" fill="none" stroke="#c8b89a" stroke-width="1.2" stroke-opacity="0.4" stroke-linecap="round"/>
  <path d="M225 118 Q223 110 227 102 Q223 94 227 86" fill="none" stroke="#c8b89a" stroke-width="1.2" stroke-opacity="0.4" stroke-linecap="round"/>
  <!-- Spoon -->
  <path d="M262 125 Q272 120 275 130 Q272 140 262 135 Z" fill="none" stroke="#c8b89a" stroke-width="1.2" stroke-opacity="0.4"/>
  <line x1="268" y1="130" x2="285" y2="165" stroke="#c8b89a" stroke-width="1.2" stroke-opacity="0.4" stroke-linecap="round"/>
  <!-- Label -->
  <text x="200" y="210" text-anchor="middle" font-family="Georgia, serif" font-size="13" fill="#e8a020" opacity="0.7">Royal Curries</text>
  <text x="200" y="230" text-anchor="middle" font-family="Arial, sans-serif" font-size="10" fill="#c8b89a" opacity="0.5">Image coming soon</text>
</svg>