<svg xmlns="http://www.w3.org/2000/svg" viewBox="0 0 400 300" width="400" height="300">
  <rect width="400" height="300" fill="#111f15"/>
  <rect x="20" y="20" width="360" height="260" rx="16" fill="#162a1a" stroke="#e8a020" stroke-width="1" stroke-opacity="0.3"/>
  <!-- Grill/flame icon -->
  <path d="M185 160 Q175 140 190 125 Q185 145 200 135 Q195 150 210 140 Q205 158 220 155 Q215 170 200 172 Q185 170 185 160Z" fill="none" stroke="#e8a020" stroke-width="1.5" stroke-opacity="0.55" stroke-linejoin="round"/>
  <!-- Skewer lines -->
  <line x1="155" y1="175" x2="245" y2="100" stroke="#c8b89a" stroke-width="1.5" stroke-opacity="0.35" stroke-linecap="round"/>
  <circle cx="175" cy="157" r="6" fill="none" stroke="#c8b89a" stroke-width="1.2" stroke-opacity="0.4"/>
  <circle cx="195" cy="138" r="6" fill="none" stroke="#c8b89a" stroke-width="1.2" stroke-opacity="0.4"/>
  <circle cx="215" cy="119" r="6" fill="none" stroke="#c8b89a" stroke-width="1.2" stroke-opacity="0.4"/>
  <!-- Grill lines -->
  <line x1="150" y1="182" x2="250" y2="182" stroke="#e8a020" stroke-width="1" stroke-opacity="0.3"/>
  <line x1="155" y1="188" x2="245" y2="188" stroke="#e8a020" stroke-width="0.8" stroke-opacity="0.2"/>
  <!-- Label -->
  <text x="200" y="215" text-anchor="middle" font-family="Georgia, serif" font-size="13" fill="#e8a020" opacity="0.7">Tandoor &amp; Grill</text>
  <text x="200" y="235" text-anchor="middle" font-family="Arial, sans-serif" font-size="10" fill="#c8b89a" opacity="0.5">Image coming soon</text>
</svg>