<svg xmlns="http://www.w3.org/2000/svg" viewBox="0 0 400 300" width="400" height="300">
  <rect width="400" height="300" fill="#111f15"/>
  <rect x="20" y="20" width="360" height="260" rx="16" fill="#162a1a" stroke="#e8a020" stroke-width="1" stroke-opacity="0.3"/>
  <!-- Handi (cooking pot) shape -->
  <path d="M155 100 L145 160 Q145 175 200 178 Q255 175 255 160 L245 100 Z" fill="none" stroke="#e8a020" stroke-width="1.5" stroke-opacity="0.5"/>
  <ellipse cx="200" cy="100" rx="45" ry="12" fill="none" stroke="#e8a020" stroke-width="1.5" stroke-opacity="0.5"/>
  <!-- Lid handle -->
  <path d="M190 88 Q200 82 210 88" fill="none" stroke="#c8b89a" stroke-width="1.5" stroke-opacity="0.5" stroke-linecap="round"/>
  <!-- Rice grain hints -->
  <ellipse cx="185" cy="140" rx="4" ry="2" fill="none" stroke="#c8b89a" stroke-width="1" stroke-opacity="0.35" transform="rotate(-20 185 140)"/>
  <ellipse cx="200" cy="148" rx="4" ry="2" fill="none" stroke="#c8b89a" stroke-width="1" stroke-opacity="0.35" transform="rotate(10 200 148)"/>
  <ellipse cx="215" cy="138" rx="4" ry="2" fill="none" stroke="#c8b89a" stroke-width="1" stroke-opacity="0.35" transform="rotate(-15 215 138)"/>
  <!-- Saffron strands hint -->
  <path d="M195 125 Q197 120 200 125 Q202 120 205 125" fill="none" stroke="#e8a020" stroke-width="1" stroke-opacity="0.6" stroke-linecap="round"/>
  <!-- Label -->
  <text x="200" y="210" text-anchor="middle" font-family="Georgia, serif" font-size="13" fill="#e8a020" opacity="0.7">Biryani Atelier</text>
  <text x="200" y="230" text-anchor="middle" font-family="Arial, sans-serif" font-size="10" fill="#c8b89a" opacity="0.5">Image coming soon</text>
</svg>