<svg xmlns="http://www.w3.org/2000/svg" viewBox="0 0 400 300" width="400" height="300">
  <defs>
    <radialGradient id="bg" cx="50%" cy="40%" r="70%"><stop offset="0%" stop-color="#0e1a0a"/><stop offset="100%" stop-color="#0c1a0f"/></radialGradient>
    <radialGradient id="gravy" cx="50%" cy="30%" r="70%"><stop offset="0%" stop-color="#d4a040"/><stop offset="50%" stop-color="#b07820"/><stop offset="100%" stop-color="#705008"/></radialGradient>
    <radialGradient id="bowl" cx="50%" cy="40%" r="60%"><stop offset="0%" stop-color="#282010"/><stop offset="100%" stop-color="#141008"/></radialGradient>
  </defs>
  <rect width="400" height="300" fill="url(#bg)"/>
  <ellipse cx="200" cy="193" rx="106" ry="20" fill="#020200" opacity="0.65"/>
  <ellipse cx="200" cy="184" rx="108" ry="38" fill="url(#bowl)"/>
  <ellipse cx="200" cy="180" rx="104" ry="36" fill="#1e1808"/>
  <ellipse cx="200" cy="152" rx="104" ry="16" fill="#2a2010" stroke="#4a3418" stroke-width="1"/>
  <ellipse cx="200" cy="150" rx="100" ry="14" fill="#221808"/>
  <ellipse cx="200" cy="151" rx="104" ry="16" fill="none" stroke="#c09020" stroke-width="1.2" opacity="0.5"/>

  <!-- Korma gravy (rich golden) -->
  <ellipse cx="200" cy="152" rx="96" ry="14" fill="url(#gravy)"/>
  <ellipse cx="200" cy="150" rx="92" ry="12" fill="#c49030"/>
  <ellipse cx="185" cy="144" rx="16" ry="7" fill="#d4a040" opacity="0.45"/>
  <ellipse cx="218" cy="146" rx="13" ry="6" fill="#c49030" opacity="0.35"/>

  <!-- Mixed vegetables -->
  <!-- Carrot pieces -->
  <ellipse cx="158" cy="148" rx="10" ry="7" fill="#e86020" opacity="0.9"/>
  <ellipse cx="158" cy="146" rx="8" ry="5" fill="#f07030"/>
  <!-- Peas -->
  <circle cx="175" cy="143" r="5" fill="#3a9820"/>
  <circle cx="175" cy="142" r="4" fill="#4aaa28"/>
  <circle cx="183" cy="145" r="4.5" fill="#3a9820"/>
  <circle cx="183" cy="144" r="3.5" fill="#4aaa28"/>
  <!-- Cauliflower floret -->
  <circle cx="198" cy="142" r="9" fill="#f0e8c0"/>
  <circle cx="193" cy="140" r="5" fill="#ede0b0"/>
  <circle cx="203" cy="139" r="6" fill="#f0e8c0"/>
  <circle cx="198" cy="145" r="4" fill="#e8d8a8"/>
  <!-- Beans -->
  <rect x="214" y="142" width="16" height="5" rx="2.5" fill="#3a8010" opacity="0.85"/>
  <!-- Potato chunk -->
  <ellipse cx="238" cy="148" rx="11" ry="8" fill="#e8d090" opacity="0.85"/>
  <ellipse cx="238" cy="146" rx="9" ry="6" fill="#f0dca0"/>
  <!-- Paneer cube -->
  <rect x="222" y="140" width="14" height="12" rx="2" fill="#fff8e0"/>
  <rect x="223" y="141" width="12" height="10" rx="1.5" fill="#fffaec"/>

  <!-- Cashew nuts in gravy -->
  <path d="M165 153 Q170 148 175 152" fill="none" stroke="#d4b060" stroke-width="2.5" stroke-linecap="round" opacity="0.8"/>
  <path d="M210 151 Q215 146 220 150" fill="none" stroke="#d4b060" stroke-width="2.5" stroke-linecap="round" opacity="0.7"/>

  <!-- Cream swirl -->
  <path d="M170 135 Q200 125 230 135" fill="none" stroke="#fffaf0" stroke-width="2" stroke-linecap="round" opacity="0.6"/>

  <!-- Rose petals garnish -->
  <path d="M155 132 Q160 126 166 130 Q162 136 156 134 Q153 134 155 132Z" fill="#e87080" opacity="0.7"/>
  <path d="M160 128 Q165 122 171 126 Q167 132 161 130 Q158 130 160 128Z" fill="#f08090" opacity="0.6"/>

  <!-- Saffron strands -->
  <path d="M188 131 Q192 126 196 131" fill="none" stroke="#e89020" stroke-width="1.5" stroke-linecap="round" opacity="0.85"/>
  <path d="M204 129 Q208 124 212 129" fill="none" stroke="#e89020" stroke-width="1.5" stroke-linecap="round" opacity="0.75"/>

  <!-- Label -->
  <text x="200" y="235" text-anchor="middle" font-family="Georgia, serif" font-size="12" font-weight="bold" fill="#e8a020" opacity="0.9" letter-spacing="0.3">Subz Korma-e-Khaas</text>
  <text x="200" y="252" text-anchor="middle" font-family="Arial, sans-serif" font-size="9" fill="#c8b89a" opacity="0.6" letter-spacing="1.5">ROYAL CURRIES</text>
</svg>
